<?xml version="1.0" encoding="utf-8"?>
<!-- Generator: Adobe Illustrator 16.0.0, SVG Export Plug-In . SVG Version: 6.00 Build 0)  -->
<!DOCTYPE svg PUBLIC "-//W3C//DTD SVG 1.1//EN" "http://www.w3.org/Graphics/SVG/1.1/DTD/svg11.dtd">
<svg version="1.1" xmlns="http://www.w3.org/2000/svg" xmlns:xlink="http://www.w3.org/1999/xlink" x="0px" y="0px" width="111px"
	 height="15px" viewBox="0 0 111 15" enable-background="new 0 0 111 15" xml:space="preserve">
<g id="レイヤー_1">
	<g>
		<path d="M11.002,1.004c3.858,0,6.994,3.126,6.994,6.994c0,1.713-0.615,3.293-1.655,4.507c-0.125,0.15-0.258,0.3-0.399,0.441
			C14.678,14.218,12.932,15,11.002,15H4V1.004H11.002z M6.495,12.505h4.507c2.478,0,4.499-2.021,4.499-4.507
			c0-2.479-2.021-4.499-4.499-4.499H6.495V12.505z"/>
		<path d="M36.404,0.997v14.004h-2.503V6.086l-2.453,1.888l-2.046,1.58l-2.046-1.58l-2.453-1.888v8.915H22.4V0.997l2.503,1.929
			l4.499,3.468l4.499-3.468L36.404,0.997z"/>
		<path d="M51.891,15.001h-2.803l-1.28-2.504l-3.052-5.996l-3.053,5.996l-1.28,2.504H37.62l1.272-2.504l5.863-11.5l5.862,11.5
			L51.891,15.001z"/>
		<path d="M65.709,4.772c0,1.53-0.907,2.853-2.213,3.443c-0.341,0.158-0.706,0.266-1.089,0.308
			c-0.033,0.008-0.075,0.008-0.108,0.008v0.025h-6.704v6.44H53.1V0.992h0.002V0.988h8.832c1.047,0,1.987,0.424,2.669,1.106
			C65.284,2.784,65.709,3.732,65.709,4.772z M63.214,4.772c0-0.458-0.241-0.773-0.383-0.923c-0.166-0.158-0.457-0.366-0.897-0.366
			h-6.337v2.578h6.337c0.183,0,0.357-0.033,0.523-0.117C62.923,5.737,63.214,5.279,63.214,4.772z"/>
		<path d="M80.309,4.772c0,1.53-0.907,2.853-2.213,3.443c-0.341,0.158-0.706,0.266-1.089,0.308
			c-0.033,0.008-0.075,0.008-0.108,0.008v0.025h-6.704v6.44h-2.495V0.992h0.002V0.988h8.832c1.047,0,1.987,0.424,2.669,1.106
			C79.884,2.784,80.309,3.732,80.309,4.772z M77.813,4.772c0-0.458-0.241-0.773-0.383-0.923c-0.166-0.158-0.457-0.366-0.897-0.366
			h-6.337v2.578h6.337c0.183,0,0.357-0.033,0.523-0.117C77.522,5.737,77.813,5.279,77.813,4.772z"/>
		<path d="M84.794,4.78v1.297H93.8v2.495h-9.006v2.645c0,0.707,0.574,1.289,1.28,1.289h10.221v2.495H86.074
			c-2.087,0-3.775-1.696-3.775-3.784V4.78c0-2.087,1.688-3.784,3.775-3.784h10.221v2.495H86.074
			C85.368,3.491,84.794,4.073,84.794,4.78z"/>
		<path d="M109.625,12.497L110.897,15h-2.802l-1.281-2.503l-1.337-2.625l-0.06-0.11c-0.433-0.715-1.223-1.198-2.129-1.198h-2.495
			v6.437h-2.495V0.997h8.835c1.048,0,1.987,0.424,2.67,1.106c0.682,0.69,1.105,1.638,1.105,2.678c0,1.53-0.906,2.853-2.212,3.443
			c-0.341,0.158-0.707,0.266-1.089,0.308c-0.001,0-0.003,0-0.004,0L109.625,12.497z M107.134,6.069c0.184,0,0.357-0.033,0.524-0.117
			c0.465-0.208,0.757-0.665,0.757-1.172c0-0.458-0.241-0.773-0.383-0.923c-0.167-0.158-0.458-0.366-0.898-0.366h-6.337v2.578
			H107.134z"/>
	</g>
</g>
<g id="レイヤー_2">
	<line fill="none" stroke="#000000" stroke-width="3" stroke-miterlimit="10" x1="0" y1="8.33" x2="4" y2="8.33"/>
	<line fill="none" stroke="#000000" stroke-width="3" stroke-miterlimit="10" x1="18" y1="8.33" x2="22" y2="8.33"/>
	<g>
	</g>
	<g>
	</g>
	<g>
	</g>
	<g>
	</g>
	<g>
	</g>
	<g>
	</g>
	<g>
	</g>
	<g>
	</g>
	<g>
	</g>
	<g>
	</g>
	<g>
	</g>
	<g>
	</g>
	<g>
	</g>
	<g>
	</g>
	<g>
	</g>
</g>
</svg>
