<svg width="32" height="32" viewBox="0 0 32 32" xmlns="http://www.w3.org/2000/svg">
  <!-- Background -->
  <rect width="32" height="32" fill="#1f2937" rx="6"/>
  
  <!-- Grid lines (larger, more visible) -->
  <g stroke="#4b5563" stroke-width="1" opacity="0.7">
    <!-- Vertical lines -->
    <line x1="8" y1="4" x2="8" y2="28"/>
    <line x1="16" y1="4" x2="16" y2="28"/>
    <line x1="24" y1="4" x2="24" y2="28"/>
    
    <!-- Horizontal lines -->
    <line x1="4" y1="8" x2="28" y2="8"/>
    <line x1="4" y1="16" x2="28" y2="16"/>
    <line x1="4" y1="24" x2="28" y2="24"/>
  </g>
  
  <!-- Main room structure -->
  <rect x="6" y="6" width="20" height="20" fill="none" stroke="#60a5fa" stroke-width="3"/>
  
  <!-- Inner walls (creating rooms) -->
  <g stroke="#60a5fa" stroke-width="3" stroke-linecap="round">
    <!-- Vertical divider -->
    <line x1="16" y1="6" x2="16" y2="18"/>
    <!-- Horizontal divider -->
    <line x1="6" y1="16" x2="26" y2="16"/>
  </g>
  
  <!-- Room fills for distinction -->
  <rect x="7" y="7" width="8" height="8" fill="#3b82f6" opacity="0.15"/>
  <rect x="17" y="7" width="8" height="8" fill="#10b981" opacity="0.15"/>
  <rect x="7" y="17" width="18" height="8" fill="#8b5cf6" opacity="0.15"/>
  
  <!-- Door opening (gap in wall) -->
  <rect x="14" y="16" width="4" height="3" fill="#1f2937"/>
  
  <!-- Key items (larger and more visible) -->
  <!-- Treasure chest -->
  <rect x="10" y="10" width="4" height="3" fill="#fbbf24" stroke="#f59e0b" stroke-width="1" rx="1"/>
  <rect x="11" y="9" width="2" height="1" fill="#f59e0b" rx="0.5"/>
  
  <!-- Player position -->
  <circle cx="21" cy="11" r="2" fill="#ef4444" stroke="#dc2626" stroke-width="1"/>
  <circle cx="21" cy="11" r="1" fill="#fca5a5"/>
  
  <!-- Stairs -->
  <rect x="20" y="20" width="4" height="4" fill="#10b981" stroke="#059669" stroke-width="1" rx="1"/>
  <polygon points="21,21 22,22 23,21 22,23" fill="#34d399"/>
</svg>