<?xml version="1.0" encoding="utf-8"?>
<!-- Generator: Adobe Illustrator 16.0.0, SVG Export Plug-In . SVG Version: 6.00 Build 0)  -->
<!DOCTYPE svg PUBLIC "-//W3C//DTD SVG 1.1//EN" "http://www.w3.org/Graphics/SVG/1.1/DTD/svg11.dtd">
<svg version="1.1" xmlns="http://www.w3.org/2000/svg" xmlns:xlink="http://www.w3.org/1999/xlink" x="0px" y="0px" width="480px"
	 height="480px" viewBox="0 0 480 480" enable-background="new 0 0 480 480" xml:space="preserve">
<g id="レイヤー_2">
	<rect x="45" y="45" stroke="#000000" stroke-width="30" stroke-miterlimit="10" width="390" height="390"/>
</g>
<g id="レイヤー_3">
	<line fill="none" stroke="#FFFFFF" stroke-width="30" stroke-miterlimit="10" x1="30" y1="241" x2="149" y2="241"/>
	<line fill="none" stroke="#FFFFFF" stroke-width="30" stroke-miterlimit="10" x1="348" y1="241" x2="450" y2="241"/>
</g>
<g id="レイヤー_1">
	<g>
		<path fill="#FFFFFF" d="M248.01,137.106c57.868,0,104.885,46.89,104.885,104.884c0,25.691-9.229,49.387-24.816,67.596
			c-1.872,2.244-3.867,4.488-5.988,6.609C303.133,335.275,276.942,347,248.01,347H143V137.106H248.01z M180.414,309.586h67.596
			c37.165,0,67.471-30.306,67.471-67.596c0-37.165-30.306-67.471-67.471-67.471h-67.596V309.586z"/>
	</g>
	<path fill="none" stroke="#FFFFFF" stroke-width="30" stroke-miterlimit="10" d="M427,240"/>
	<path fill="none" stroke="#000000" stroke-width="30" stroke-miterlimit="10" d="M53,240"/>
	<g>
	</g>
	<g>
	</g>
	<g>
	</g>
	<g>
	</g>
	<g>
	</g>
	<g>
	</g>
	<g>
	</g>
	<g>
	</g>
	<g>
	</g>
	<g>
	</g>
	<g>
	</g>
	<g>
	</g>
	<g>
	</g>
	<g>
	</g>
	<g>
	</g>
</g>
</svg>
